# xmcd CD database file
#
# Track frame offsets:
#	150
#	21690
#	36111
#	45631
#	58200
#	68883
#	83884
#	97425
#
# Disc length: 1622 seconds
#
# Revision: 0
# Processed by: cddbd v1.5.2PL0 Copyright (c) Steve Scherf et al.
# Submitted via: CDex 1.51
#
DISCID=76065408
DTITLE=Note noir - Minch valse
DYEAR=1900
DGENRE=Jazz
TTITLE0=Route de acacias
TTITLE1=coquette
TTITLE2=Hora martissorului
TTITLE3=Suite yugoslave
TTITLE4=Minch valse
TTITLE5=Valse opus 69 n.1
TTITLE6=Pouro rom
TTITLE7=Anouman
EXTD=
EXTT0=
EXTT1=
EXTT2=
EXTT3=
EXTT4=
EXTT5=
EXTT6=
EXTT7=
PLAYORDER=
